<?xml version="1.0" encoding="utf-8"?>
<!-- Generator: Adobe Illustrator 24.2.0, SVG Export Plug-In . SVG Version: 6.00 Build 0)  -->
<svg version="1.1" id="Layer_1" xmlns="http://www.w3.org/2000/svg" xmlns:xlink="http://www.w3.org/1999/xlink" x="0px" y="0px"
	 viewBox="0 0 32 32" style="enable-background:new 0 0 32 32;" xml:space="preserve">
<style type="text/css">
	.st0{fill:#FFFFFF;}
</style>
<g>
	<g>
		<path class="st0" d="M27.5,3.4V1H4.5v2.4h14.2v5.2H4.5v2.3h14l0,0.3c-0.6,4.8-3.4,5.3-12.1,5.3v5.8c0,5.6,3,8.7,8.5,8.7
			c5.4,0,8.3-2.8,8.4-8.2h-3.1c-0.1,3.7-1.8,5.6-5.3,5.6c-3.5,0-5.3-2.1-5.3-6.1v-3.7h0.3c8.1,0,11.1-1.9,11.8-7.6l0-0.2h5.7V8.5
			h-5.6V3.4H27.5z"/>
	</g>
</g>
</svg>
