<svg xmlns="http://www.w3.org/2000/svg" viewBox="0 0 182 22"><line x1="11" y1="5" x2="11" y2="16" fill="none" stroke="#ff6d6a" stroke-miterlimit="10" stroke-width="2"/><polyline points="15 12 11 16 7 12" fill="none" stroke="#ff6d6a" stroke-linecap="square" stroke-miterlimit="10" stroke-width="2"/><rect x="1" y="1" width="20" height="20" fill="none" stroke="#ff6d6a" stroke-linecap="square" stroke-miterlimit="10" stroke-width="2"/><line x1="51" y1="17" x2="51" y2="6" fill="none" stroke="#fff" stroke-miterlimit="10" stroke-width="2"/><polyline points="47 10 51 6 55 10" fill="none" stroke="#fff" stroke-linecap="square" stroke-miterlimit="10" stroke-width="2"/><rect x="41" y="1" width="20" height="20" fill="none" stroke="#fff" stroke-linecap="square" stroke-miterlimit="10" stroke-width="2"/><line x1="91" y1="17" x2="91" y2="6" fill="none" stroke="#fff" stroke-miterlimit="10" stroke-width="2"/><polyline points="87 10 91 6 95 10" fill="none" stroke="#fff" stroke-linecap="square" stroke-miterlimit="10" stroke-width="2"/><rect x="81" y="1" width="20" height="20" fill="none" stroke="#fff" stroke-linecap="square" stroke-miterlimit="10" stroke-width="2"/><line x1="131" y1="17" x2="131" y2="6" fill="none" stroke="#fff" stroke-miterlimit="10" stroke-width="2"/><polyline points="127 10 131 6 135 10" fill="none" stroke="#fff" stroke-linecap="square" stroke-miterlimit="10" stroke-width="2"/><rect x="121" y="1" width="20" height="20" fill="none" stroke="#fff" stroke-linecap="square" stroke-miterlimit="10" stroke-width="2"/><line x1="171" y1="17" x2="171" y2="6" fill="none" stroke="#fff" stroke-miterlimit="10" stroke-width="2"/><polyline points="167 10 171 6 175 10" fill="none" stroke="#fff" stroke-linecap="square" stroke-miterlimit="10" stroke-width="2"/><rect x="161" y="1" width="20" height="20" fill="none" stroke="#fff" stroke-linecap="square" stroke-miterlimit="10" stroke-width="2"/></svg>