<?xml version="1.0" encoding="utf-8"?>
<!-- Generator: Adobe Illustrator 24.2.0, SVG Export Plug-In . SVG Version: 6.00 Build 0)  -->
<svg version="1.1" id="Layer_1" xmlns="http://www.w3.org/2000/svg" xmlns:xlink="http://www.w3.org/1999/xlink" x="0px" y="0px"
	 width="562.05px" height="282.47px" viewBox="0 0 562.05 282.47" enable-background="new 0 0 562.05 282.47" xml:space="preserve">
<g>
	<g>
		<path fill="#FFFFFF" d="M5.58,0C2.5,0,0,2.5,0,5.58v3.07v11.53v103.76l17.35-16.11c1.8-1.67,2.82-4.02,2.82-6.48V20.18h259.48
			c1.55,0,2.81-1.26,2.81-2.81V2.81c0-1.55-1.26-2.81-2.81-2.81H5.58z"/>
		<path fill="#FFFFFF" d="M20.18,172.79l83.59-83.59v34.73h20.18v-49V54.76h-20.18h-49v20.18H89.5L2.73,161.71
			c-1.65,1.65-2.59,3.9-2.59,6.24L0,262.29v14.59c0,3.08,2.5,5.58,5.58,5.58h274.07c1.55,0,2.81-1.26,2.81-2.81V265.1
			c0-1.55-1.26-2.81-2.81-2.81H20.18V172.79z"/>
	</g>
	<path fill="#FFFFFF" d="M222.81,123.78h-20.05c-3.29-14.72-6.57-29.4-9.85-44.09c-0.07,0-0.14,0-0.21-0.01
		c-3.24,14.67-6.49,29.35-9.74,44.08h-20.89c-6.48-22.97-12.97-45.95-19.47-69c7.21,0,14.3,0,21.47,0
		c2.94,14.3,5.88,28.59,8.83,42.88c0.08-0.02,0.11-0.03,0.13-0.04c0.02-0.01,0.05-0.03,0.06-0.06c0.03-0.05,0.06-0.1,0.08-0.15
		c3.43-14.16,6.89-28.47,10.32-42.64l19.18,0c3.34,14.33,6.7,28.71,10.05,43.05c0.08,0,0.1,0.01,0.13,0
		c0.03-0.01,0.06-0.02,0.07-0.04c0.03-0.05,0.06-0.1,0.08-0.15c0.05-0.19,0.09-0.39,0.13-0.59c3.09-13.98,6.19-27.95,9.28-41.93
		c0.01-0.03,0.02-0.06,0.03-0.08c0.02-0.05,0.05-0.1,0.07-0.16c0.01-0.03,0.03-0.05,0.06-0.1c6.53,0,13.07,0,19.72,0
		C235.79,77.8,229.3,100.79,222.81,123.78z"/>
	<path fill="#FFFFFF" d="M247.55,123.74c0-22.99,0-45.97,0-68.97c16.39,0,32.84,0,49.2,0v16.15c-9.56,0-19.68,0.01-29.24,0.01
		c-0.03,0-0.06,0.01-0.08,0.02c-0.03,0.01-0.05,0.02-0.15,0.05c0,3.04,0,6.09,0,9.26c9.02,0,18.02,0,27.07,0c0,5.43,0,10.76,0,16.16
		c-9.02,0-18,0-26.95,0c-0.22,0.68-0.26,10.12-0.05,11.12c10.11,0,20.23,0,30.42,0c0,5.45,0,10.81,0,16.17
		C297.19,123.86,248.76,123.92,247.55,123.74z"/>
	<path fill="#FFFFFF" d="M322.65,54.76h24.51c7.63,22.98,15.25,45.95,22.89,69h-20.11c-0.09-0.27-2.31-7.35-3.32-10.57
		c-0.13-0.41-0.5-0.68-0.93-0.68h-22.93c-1.21,3.74-2.43,7.53-3.64,11.27h-19.39C307.39,100.75,315.01,77.78,322.65,54.76z
		 M334.55,74.52c-1.98,7.67-4.64,15.03-6.85,22.58h13.31c0.24,0,0.41-0.23,0.34-0.46c-0.4-1.28-1.52-4.79-2.04-6.5
		C337.78,85.09,334.65,74.73,334.55,74.52z"/>
	<path fill="#FFFFFF" d="M374.49,54.76c6.5,0,13.01,0,19.64,0c0.01,3.38,0,47.5,0,50.97c9.68,0,19.37,0,28.95,0v18.02
		c-16.18,0-32.4,0-48.59,0V54.76z"/>
	<polygon fill="#FFFFFF" points="499.95,54.78 499.95,79.81 523.29,79.81 523.29,54.76 542.99,54.76 542.99,123.78 523.32,123.78 
		523.32,98.52 499.96,98.52 499.96,123.78 480.28,123.78 480.28,54.78 	"/>
	<polygon fill="#FFFFFF" points="433.94,73.41 414.43,73.41 414.43,54.76 472.37,54.76 472.37,73.4 453.43,73.4 453.43,123.77 
		433.94,123.77 	"/>
	<path fill="#FFFFFF" d="M124.88,194.12c0.03-6.13,0.86-11.75,3.14-17.08c4.08-9.54,11.18-15.69,21.12-18.59
		c3.91-1.14,7.91-1.55,11.97-1.5c4.41,0.05,8.74,0.63,12.93,2.06c10.32,3.52,16.98,10.59,20.13,20.98c1.44,4.75,1.9,9.63,1.77,14.58
		c-0.13,4.76-0.87,9.42-2.58,13.87c-3.91,10.18-11.15,16.77-21.6,19.83c-3.89,1.14-7.88,1.54-11.93,1.5
		c-4.46-0.05-8.83-0.62-13.06-2.06c-10.27-3.49-16.92-10.51-20.08-20.86C125.39,202.58,124.92,198.19,124.88,194.12z M175.11,192.75
		c-0.05-0.69-0.11-2.03-0.27-3.35c-0.31-2.55-0.93-5.03-2.13-7.32c-1.63-3.11-4.02-5.36-7.38-6.5c-2.31-0.79-4.7-0.93-7.11-0.62
		c-2.47,0.33-4.71,1.24-6.62,2.89c-2.48,2.14-3.89,4.91-4.71,8.01c-0.91,3.43-1.09,6.92-0.8,10.44c0.21,2.52,0.67,4.98,1.66,7.32
		c1.34,3.18,3.43,5.67,6.62,7.11c1.93,0.87,3.98,1.19,6.08,1.19c2.08,0,4.09-0.34,6-1.19c3.36-1.5,5.55-4.11,6.92-7.45
		C174.67,200.11,175.08,196.78,175.11,192.75z"/>
	<path fill="#FFFFFF" d="M251.98,209.66v18.04H203.2c0-23.05,0-46.1,0-69.18c6.56,0,19.69,0,19.69,0l0,51.13H251.98z"/>
	<path fill="#FFFFFF" d="M349.55,227.29c-6.52,0-13.01,0-19.53,0c0-22.92,0-45.82,0-68.76c6.49,0,12.99,0,19.53,0
		C349.55,181.43,349.55,204.34,349.55,227.29z"/>
	<path fill="#FFFFFF" d="M256.53,227.7c0-23.07,0-46.09,0-69.17c0,0,18.73-0.01,27.86,0c5.17,0.01,10.26,0.57,15.21,2.15
		c4.09,1.31,7.86,3.23,11.13,6.03c4.49,3.84,7.4,8.69,9.02,14.34c1.29,4.5,1.69,9.11,1.5,13.77c-0.18,4.47-0.96,8.82-2.66,12.97
		c-3.26,7.96-8.99,13.44-16.89,16.71c-3.75,1.55-7.67,2.49-11.71,2.85c-2.26,0.2-4.53,0.32-6.8,0.33
		C274.49,227.72,256.53,227.7,256.53,227.7z M276.22,210.55c0.2,0.01,0.36,0.02,0.51,0.02c1.88,0.03,3.76,0.05,5.65,0.09
		c2.29,0.04,4.57-0.11,6.8-0.65c4.81-1.16,8.23-3.93,9.92-8.66c0.8-2.22,1.11-4.54,1.19-6.89c0.1-2.84-0.11-5.66-0.92-8.4
		c-1.19-4.06-3.59-7.11-7.49-8.88c-2.33-1.06-4.81-1.54-7.35-1.66c-2.6-0.12-5.2-0.12-7.8-0.17c-0.17,0-0.33,0-0.52,0
		C276.22,187.11,276.22,198.8,276.22,210.55z"/>
	<path fill="#FFFFFF" d="M422.93,227.35l-19.08,0c-0.39,0-0.75-0.2-0.96-0.54c-7.34-12.28-22.45-37.48-22.6-37.61l0.51,38.13h-19.07
		v-69.13h20.16c0.36,0,0.69,0.19,0.87,0.49L403.94,194c0.08,0.13,0.17,0.26,0.31,0.39l-0.41-35.86h19.09V227.35z"/>
	<path fill="#FFFFFF" d="M477.55,204.14c-4.15,0-8.26,0-12.39,0c0-5.01,0-9.98,0-14.99c10.19,0,20.38,0,30.6,0
		c0,12.93,0,25.85,0,38.82c-0.16,0-9.73,0-14.38,0.01c-0.36,0-0.49-0.1-0.57-0.44c-0.28-1.26-0.6-2.5-0.92-3.81
		c-0.2,0.15-0.35,0.27-0.51,0.39c-3.14,2.45-6.71,3.97-10.58,4.8c-3.8,0.82-7.64,0.99-11.5,0.67c-4.38-0.35-8.53-1.54-12.36-3.72
		c-4.93-2.8-8.58-6.83-11.13-11.87c-1.85-3.66-2.97-7.55-3.61-11.59c-0.52-3.34-0.7-6.69-0.59-10.06
		c0.22-6.76,1.52-13.27,4.85-19.25c4.51-8.12,11.42-13.04,20.41-15.13c4.32-1.01,8.71-1.15,13.12-0.8
		c3.99,0.32,7.84,1.17,11.49,2.82c6.94,3.15,11.48,8.48,13.89,15.65c0.62,1.84,1.45,5.78,1.46,5.87
		c-6.49,0.83-12.97,1.66-19.47,2.49c-0.15-0.54-0.27-1.05-0.43-1.55c-1.15-3.6-3.42-6.09-7.12-7.16c-1.59-0.46-3.22-0.58-4.87-0.49
		c-2.61,0.14-4.93,1.03-6.9,2.78c-1.88,1.67-3.08,3.77-3.9,6.11c-0.89,2.53-1.29,5.15-1.42,7.82c-0.18,3.66,0.09,7.27,1.09,10.81
		c0.57,2.01,1.43,3.88,2.76,5.51c1.81,2.22,4.15,3.55,6.98,3.9c3.29,0.4,6.52,0.09,9.61-1.19c2.83-1.17,4.9-3.16,6.25-5.91
		C477.44,204.52,477.53,204.26,477.55,204.14z"/>
	<path fill="#FFFFFF" d="M502.42,208.23c6.38-0.9,12.71-1.8,19.06-2.69c0.11,0.43,0.21,0.84,0.33,1.25
		c1.08,3.65,3.59,5.69,7.27,6.32c2.99,0.5,5.99,0.47,8.96-0.15c0.5-0.1,1-0.28,1.47-0.47c2.03-0.85,3.02-2.65,2.78-4.85
		c-0.16-1.5-0.93-2.53-2.22-3.22c-1.54-0.82-3.2-1.29-4.89-1.63c-3.38-0.68-6.77-1.29-10.16-1.91c-3.64-0.68-7.22-1.55-10.59-3.12
		c-3.16-1.47-5.89-3.47-7.85-6.41c-1.48-2.22-2.34-4.67-2.73-7.28c-0.53-3.51-0.45-7,0.45-10.44c1.38-5.28,4.48-9.28,9.11-12.13
		c3.34-2.05,7.01-3.21,10.85-3.87c3.85-0.66,7.72-0.75,11.61-0.5c3.72,0.24,7.36,0.87,10.83,2.27c6.58,2.66,10.68,7.52,12.61,14.29
		c0.22,0.77,0.76,3.27,0.85,3.78c-6.37,0.9-12.72,1.8-19.05,2.69c-0.21-0.65-0.37-1.27-0.6-1.87c-0.81-2.15-2.35-3.57-4.53-4.22
		c-2.97-0.88-5.99-0.92-8.98-0.1c-0.77,0.21-1.52,0.64-2.15,1.13c-1.5,1.16-1.88,3.53-0.82,5.06c0.36,0.52,0.92,0.95,1.47,1.29
		c1.37,0.84,2.91,1.3,4.47,1.64c3.32,0.73,6.66,1.41,9.99,2.08c4.13,0.82,8.18,1.86,11.94,3.81c3.58,1.85,6.47,4.41,8.22,8.12
		c0.99,2.1,1.52,4.33,1.75,6.63c0.3,3.02,0.21,6.04-0.45,9.01c-1.36,6.07-4.9,10.44-10.42,13.26c-3.05,1.56-6.31,2.45-9.66,3.03
		c-4.07,0.7-8.18,0.82-12.3,0.67c-4.24-0.15-8.42-0.72-12.43-2.18c-7.12-2.58-11.54-7.61-13.4-14.92
		C502.91,211.33,502.44,208.45,502.42,208.23z"/>
	<polygon fill="#FFFFFF" points="74.47,158.6 74.47,183.85 97.81,183.85 97.81,158.58 117.51,158.58 117.51,227.82 97.84,227.82 
		97.84,202.56 74.49,202.56 74.49,227.82 54.81,227.82 54.81,158.6 	"/>
</g>
</svg>
