<?xml version="1.0" encoding="utf-8"?>
<!-- Generator: Adobe Illustrator 24.2.0, SVG Export Plug-In . SVG Version: 6.00 Build 0)  -->
<svg version="1.1" id="Layer_1" xmlns="http://www.w3.org/2000/svg" xmlns:xlink="http://www.w3.org/1999/xlink" x="0px" y="0px"
	 width="72px" height="72px" viewBox="0 0 72 72" enable-background="new 0 0 72 72" xml:space="preserve">
<g id="BrandElements_x2F_Arrow">
	<path id="Fill-7-Copy" fill-rule="evenodd" clip-rule="evenodd" fill="#ED5E5D" d="M3.58,2.92v17.06c0,0.51,0.41,0.92,0.91,0.92
		h34.38c0.32,0,0.48,0.39,0.25,0.62L2.27,58.37c-0.36,0.36-0.36,0.93,0,1.29l12.06,12.07c0.36,0.36,0.93,0.36,1.29,0l36.87-36.86
		c0.23-0.23,0.62-0.07,0.62,0.25V69.5c0,0.51,0.41,0.92,0.91,0.92h17.06c0.51,0,0.93-0.41,0.93-0.92V3.22C72,2.55,71.45,2,70.77,2
		H4.49C3.99,2,3.58,2.41,3.58,2.92"/>
	<path id="Fill-7" fill-rule="evenodd" clip-rule="evenodd" fill="#FFFFFF" d="M1.58,0.92v17.06c0,0.51,0.41,0.92,0.91,0.92h34.38
		c0.32,0,0.48,0.39,0.25,0.62L0.27,56.37c-0.36,0.36-0.36,0.93,0,1.29l12.06,12.07c0.36,0.36,0.93,0.36,1.29,0l36.87-36.86
		c0.23-0.23,0.62-0.07,0.62,0.25V67.5c0,0.51,0.41,0.92,0.91,0.92h17.06c0.51,0,0.93-0.41,0.93-0.92V1.22C70,0.55,69.45,0,68.77,0
		H2.49C1.99,0,1.58,0.41,1.58,0.92"/>
</g>
</svg>
